<?xml version="1.0" encoding="utf-8"?>
<!-- Generator: Adobe Illustrator 28.0.0, SVG Export Plug-In . SVG Version: 6.00 Build 0)  -->
<svg version="1.1" id="Layer_1" xmlns="http://www.w3.org/2000/svg" xmlns:xlink="http://www.w3.org/1999/xlink" x="0px" y="0px"
	 viewBox="0 0 512 512" style="enable-background:new 0 0 512 512;" xml:space="preserve">
<style type="text/css">
	.st0{fill:#FFFFFF;}
</style>
<path class="st0" d="M266.4,334.1l83.4-69.1c2.7-2.2,4.2-5.5,4.2-9s-1.5-6.8-4.2-9l-83.4-69.1c-5-4.1-12.3-3.4-16.4,1.5
	c-4.1,5-3.4,12.3,1.5,16.4l58.5,48.5H140.7c-6.4,0-11.7,5.2-11.7,11.7c0,6.4,5.2,11.7,11.7,11.7H310l-58.5,48.5
	c-2.8,2.3-4.2,5.6-4.2,9c0,2.6,0.9,5.3,2.7,7.4C254.1,337.5,261.5,338.2,266.4,334.1L266.4,334.1z"/>
</svg>
